<svg xmlns="http://www.w3.org/2000/svg" viewBox="0 0 18 25" width="18" height="25">
	<style>
		tspan { white-space:pre }
		.shp0 { fill: #235466 } 
	</style>
	<g id="Footer">
		<g id="address">
			<g id="btn_Find Us on map">
				<path id="ico_point" class="shp0" d="M9.5 0C4.81 0 1 3.81 1 8.5C1 12.37 3.57 15.7 7.29 16.7L9.01 23.62C9.07 23.84 9.27 24 9.5 24C9.73 24 9.93 23.84 9.99 23.62L11.71 16.7C15.43 15.7 18 12.37 18 8.5C18 3.81 14.19 0 9.5 0ZM9.5 13C7.01 13 5 10.99 5 8.5C5 6.01 7.01 4 9.5 4C11.99 4 14 6.01 14 8.5C14 10.99 11.99 13 9.5 13Z" />
			</g>
		</g>
	</g>
</svg>