<svg xmlns="http://www.w3.org/2000/svg" xmlns:xlink="http://www.w3.org/1999/xlink" width="16" height="16" viewBox="0 0 16 16"><defs><path id="20yta" d="M1859.97 79l-4.731-4.727a6.296 6.296 0 0 1-3.914 1.361c-3.488 0-6.325-2.834-6.325-6.317 0-3.484 2.837-6.318 6.325-6.318 3.487 0 6.324 2.834 6.324 6.318a6.28 6.28 0 0 1-1.378 3.93l4.729 4.724zm-8.645-4.82a4.872 4.872 0 0 0 4.869-4.863 4.872 4.872 0 0 0-4.87-4.863 4.872 4.872 0 0 0-4.868 4.863 4.872 4.872 0 0 0 4.869 4.863z"/></defs><g><g transform="translate(-1845 -63)"><use fill="#235466" xlink:href="#20yta"/></g></g></svg>